<svg xmlns="http://www.w3.org/2000/svg" viewBox="0 0 251.22 261.2"><defs><style>.cls-1{fill:none;stroke:#000;stroke-linecap:round;stroke-linejoin:round;}</style></defs><g id="Layer_2" data-name="Layer 2"><g id="Layer_1-2" data-name="Layer 1"><polygon class="cls-1" points="220.84 138.48 220.84 138.47 190.97 121.23 220.84 103.98 250.72 121.23 220.84 138.48"/><polygon class="cls-1" points="220.84 138.47 220.84 172.97 190.97 155.72 190.97 121.23 220.84 138.47"/><polygon class="cls-1" points="250.72 121.23 250.72 155.72 220.84 172.97 220.84 138.48 250.72 121.23"/><polygon class="cls-1" points="116.83 138.47 116.83 138.47 86.96 121.22 116.83 103.97 146.71 121.22 116.83 138.47"/><polygon class="cls-1" points="116.83 138.47 116.83 172.97 86.96 155.72 86.96 121.22 116.83 138.47"/><polygon class="cls-1" points="146.71 121.22 146.71 155.72 116.83 172.97 116.83 138.47 146.71 121.22"/><polygon class="cls-1" points="220.83 69.48 220.83 69.47 190.96 52.23 220.83 34.98 250.71 52.23 220.83 69.48"/><polygon class="cls-1" points="220.83 69.47 220.83 103.97 190.96 86.72 190.96 52.23 220.83 69.47"/><polygon class="cls-1" points="250.71 52.23 250.71 86.72 220.83 103.97 220.83 69.48 250.71 52.23"/><polygon class="cls-1" points="220.83 103.98 220.83 103.97 190.96 86.73 220.83 69.48 250.71 86.73 220.83 103.98"/><polygon class="cls-1" points="220.83 103.97 220.83 138.47 190.96 121.22 190.96 86.73 220.83 103.97"/><polygon class="cls-1" points="250.71 86.73 250.71 121.22 220.83 138.47 220.83 103.98 250.71 86.73"/><polygon class="cls-1" points="75.19 226.21 75.19 226.2 45.31 208.96 75.19 191.71 105.06 208.96 75.19 226.21"/><polygon class="cls-1" points="75.19 226.2 75.19 260.7 45.31 243.45 45.31 208.96 75.19 226.2"/><polygon class="cls-1" points="105.06 208.96 105.06 243.45 75.19 260.7 75.19 226.21 105.06 208.96"/><polygon class="cls-1" points="75.18 191.71 75.18 191.7 45.31 174.46 75.18 157.21 105.06 174.46 75.18 191.71"/><polygon class="cls-1" points="75.18 191.7 75.18 226.2 45.31 208.95 45.31 174.46 75.18 191.7"/><polygon class="cls-1" points="105.06 174.46 105.06 208.95 75.18 226.2 75.18 191.71 105.06 174.46"/><polygon class="cls-1" points="138.45 69.5 138.45 69.49 108.58 52.25 138.45 35 168.33 52.25 138.45 69.5"/><polygon class="cls-1" points="138.45 69.49 138.45 103.99 108.58 86.74 108.58 52.25 138.45 69.49"/><polygon class="cls-1" points="168.33 52.25 168.33 86.74 138.45 103.99 138.45 69.5 168.33 52.25"/><polygon class="cls-1" points="138.44 35 138.44 34.99 108.57 17.75 138.44 0.5 168.32 17.75 138.44 35"/><polygon class="cls-1" points="138.44 34.99 138.44 69.49 108.57 52.24 108.57 17.75 138.44 34.99"/><polygon class="cls-1" points="168.32 17.75 168.32 52.24 138.44 69.49 138.44 35 168.32 17.75"/><polygon class="cls-1" points="30.37 103.99 30.37 103.98 0.5 86.74 30.37 69.49 60.25 86.74 30.37 103.99"/><polygon class="cls-1" points="30.37 103.98 30.37 138.48 0.5 121.23 0.5 86.74 30.37 103.98"/><polygon class="cls-1" points="60.25 86.74 60.25 121.23 30.37 138.48 30.37 103.99 60.25 86.74"/><polygon class="cls-1" points="30.38 138.49 30.38 138.47 0.51 121.23 30.38 103.98 60.26 121.23 30.38 138.49"/><polygon class="cls-1" points="30.38 138.47 30.38 172.97 0.51 155.72 0.51 121.23 30.38 138.47"/><polygon class="cls-1" points="60.26 121.23 60.26 155.72 30.38 172.97 30.38 138.49 60.26 121.23"/></g></g></svg>